<?xml version="1.0" encoding="UTF-8" standalone="no"?>
<!-- Created with Inkscape (http://www.inkscape.org/) -->

<svg
   width="46.153641mm"
   height="70.228828mm"
   viewBox="0 0 46.153641 70.228828"
   version="1.1"
   id="svg1"
   xml:space="preserve"
   xmlns="http://www.w3.org/2000/svg"
   xmlns:svg="http://www.w3.org/2000/svg"><defs
     id="defs1" /><g
     id="layer1"
     transform="translate(-90.63249,-53.49402)"><path
       style="fill:#000000"
       d="m 110.78065,123.33778 c -0.69369,-0.60163 -1.05201,-0.66735 -1.05199,-0.19294 2e-5,0.42988 -11.558662,0.35262 -13.89064,-0.0929 -1.908581,-0.36459 -3.403075,-1.26064 -3.987488,-2.39077 -1.022456,-1.97722 -1.585262,-9.3872 -0.780518,-10.27643 0.318683,-0.35215 0.343537,-0.72455 0.133824,-2.00521 -0.14165,-0.86502 -0.258235,-2.82886 -0.259078,-4.36411 -8.85e-4,-1.61377 -0.120013,-2.90983 -0.282379,-3.0722 -0.345705,-0.3457 2.378956,-2.806187 4.464986,-4.032067 1.298394,-0.763014 1.449726,-0.79564 1.9771,-0.42625 0.73293,0.51336 1.619341,0.51101 2.047957,-0.005 0.293976,-0.354223 0.448497,-0.28316 1.223026,0.56242 0.48759,0.53233 0.88653,1.07196 0.88653,1.19919 0,0.12723 0.10517,0.23133 0.23372,0.23133 0.12855,0 0.30069,0.25605 0.38252,0.569 0.13865,0.5302 0.19056,0.54164 0.76102,0.16786 0.54888,-0.35964 0.67722,-0.35798 1.24055,0.0161 0.6068,0.4029 0.62178,0.39658 0.43734,-0.18455 -0.1765,-0.55609 -0.14909,-0.57557 0.36131,-0.25682 0.30376,0.1897 0.55229,0.44632 0.55229,0.57026 0,0.12394 0.23812,0.52808 0.52916,0.898077 0.54926,0.69827 0.72749,1.54891 0.26459,1.26282 -0.66818,-0.41296 -0.15874,0.66608 0.79977,1.69399 0.58539,0.62778 1.18423,1.36542 1.33076,1.6392 0.34786,0.64999 1.75289,1.38455 1.97155,1.03075 0.1065,-0.17231 0.32988,-0.17521 0.64169,-0.008 0.26307,0.14079 0.54317,0.19114 0.62242,0.11188 0.1409,-0.14089 2.30739,0.92114 2.57057,1.26012 0.0732,0.0942 0.43069,0.20124 0.79449,0.23777 0.63272,0.0636 0.96015,-0.0158 2.33196,-0.56494 0.46803,-0.18737 0.56388,-0.16673 0.40711,0.0877 -0.18505,0.30026 0.41579,-0.0285 1.88386,-1.03076 0.72807,-0.49705 1.11303,-0.44484 1.27456,0.17287 0.16504,0.6311 1.11916,0.71285 1.34837,0.11552 0.0873,-0.2275 0.278,-0.33994 0.42377,-0.24985 0.14576,0.0901 0.65262,-0.19947 1.12634,-0.64346 0.47373,-0.44399 1.01015,-0.80781 1.19205,-0.80849 0.1819,-6.7e-4 0.33073,-0.17982 0.33073,-0.3981 0,-0.21828 0.12609,-0.39687 0.2802,-0.39687 0.1541,0 0.21038,-0.11296 0.12506,-0.25101 -0.0853,-0.13806 -0.0167,-0.80063 0.15241,-1.47239 0.40034,-1.58987 0.11799,-1.85318 -1.25745,-1.17267 -0.9126,0.45152 -1.50417,0.52241 -3.82482,0.45833 -2.28248,-0.063 -2.75907,-0.14809 -2.8273,-0.50461 -0.0493,-0.2574 0.14523,-0.48826 0.48654,-0.57751 0.31273,-0.0818 0.49074,-0.274667 0.39558,-0.428637 -0.17637,-0.28537 0.59484,-0.68849 2.78855,-1.45762 0.66745,-0.23401 1.44136,-0.59969 1.71979,-0.81262 0.49265,-0.37676 0.49026,-0.39164 -0.0891,-0.55465 -0.32742,-0.0921 -0.59531,-0.28639 -0.59531,-0.43171 0,-0.25381 -2.53063,-0.0678 -3.34878,0.24617 -0.19546,0.075 -0.35539,0.005 -0.35539,-0.15651 0,-0.16109 0.2749,-0.29289 0.61089,-0.29289 0.86061,0 1.62862,-0.621173 1.42478,-1.152369 -0.1818,-0.473764 -1.11295,-0.59329 -1.37086,-0.175971 -0.10157,0.164343 -0.34068,0.146438 -0.65353,-0.04894 -0.37595,-0.234785 -0.74236,-0.233495 -1.53978,0.0054 -0.57554,0.172436 -1.29261,0.31352 -1.59348,0.31352 -0.39567,0 -0.5702,0.195681 -0.63076,0.7072 -0.046,0.388958 -0.26231,0.765508 -0.48059,0.836778 -0.34463,0.11251 -0.34762,0.0699 -0.0227,-0.32361 0.32412,-0.392592 0.31868,-0.508643 -0.0408,-0.868079 -0.46919,-0.469186 -1.04546,-0.262856 -0.83049,0.297351 0.18565,0.483798 -0.71561,0.951738 -1.45876,0.757398 -0.56881,-0.14875 -1.61602,0.62027 -1.61602,1.18672 0,0.12906 -0.20836,0.4185 -0.46302,0.64322 -0.59298,0.52326 -1.38977,0.23755 -2.14049,-0.76754 -0.30797,-0.4123 -0.74977,-0.94643 -0.98178,-1.18693 -0.27175,-0.2817 -0.4557,-1.050505 -0.51703,-2.160791 l -0.0952,-1.723502 2.08164,-2.493918 c 2.02993,-2.431977 3.43879,-3.696782 3.43879,-3.087178 0,0.386414 -0.93387,1.742164 -1.94597,2.825068 -0.44202,0.472943 -0.67583,0.859896 -0.51958,0.859896 0.15625,0 0.43447,-0.181192 0.61826,-0.40265 0.29687,-0.357711 0.37076,-0.350328 0.66205,0.06615 0.18033,0.257838 0.37196,0.676488 0.42583,0.930333 0.0886,0.417343 0.16762,0.42518 0.82556,0.08184 0.64466,-0.336418 0.7276,-0.332781 0.7276,0.03191 0,0.36454 0.0771,0.361091 0.67423,-0.03016 0.37083,-0.242975 0.87684,-0.412445 1.12448,-0.376599 0.57158,0.08274 1.64087,-0.271149 1.64087,-0.543051 0,-0.113614 -0.44648,-0.410715 -0.99218,-0.660226 -0.54571,-0.24951 -1.34938,-0.753557 -1.78594,-1.120105 l -0.79375,-0.666451 0.9246,0.458717 c 0.58869,0.292066 1.80883,0.504968 3.35851,0.586027 2.43188,0.127202 2.43461,0.126628 3.24259,-0.681359 0.75895,-0.758949 1.1015,-1.907707 0.56886,-1.907707 -0.1319,0 -0.17801,-0.236346 -0.10247,-0.525213 0.0755,-0.288867 0.0449,-0.735351 -0.0681,-0.992187 -0.11297,-0.256836 -0.22597,-0.526506 -0.25111,-0.599267 -0.0251,-0.07276 -0.11785,-0.310885 -0.20602,-0.529166 -0.0882,-0.218282 -0.34638,-0.968324 -0.57378,-1.666761 -0.2274,-0.698437 -0.63409,-1.710468 -0.90376,-2.248958 -0.26967,-0.53849 -0.56522,-1.291423 -0.65678,-1.673184 -0.10483,-0.437077 -0.46165,-0.816377 -0.96359,-1.024287 -0.92526,-0.383257 -0.96059,-0.483447 -0.33409,-0.947412 0.29844,-0.221013 0.86272,-0.289133 1.5875,-0.191643 0.95661,0.128675 1.12448,0.08129 1.12448,-0.31739 0,-1.004659 2.20159,-2.31922 4.45339,-2.659108 0.63036,-0.09515 1.43591,-0.323343 1.79011,-0.507104 0.57891,-0.300342 0.60119,-0.369642 0.22043,-0.685645 -0.27682,-0.229733 -0.38328,-0.626108 -0.30727,-1.144001 0.11569,-0.788248 -0.76327,-2.915499 -1.63217,-3.950139 -0.26197,-0.311941 -0.307,-0.542791 -0.12903,-0.661458 0.15036,-0.100257 0.22286,-0.683658 0.16111,-1.296446 -0.0929,-0.92152 -0.26186,-1.202424 -0.97746,-1.624639 -0.47586,-0.280762 -1.38653,-0.592631 -2.02372,-0.693042 -0.63718,-0.100411 -1.54248,-0.314894 -2.01176,-0.47663 -0.86157,-0.29693 -1.53018,-0.07355 -0.91601,0.306029 0.18265,0.112883 -0.96965,0.195706 -2.56068,0.184051 -1.59102,-0.01165 -2.81148,-0.08072 -2.71214,-0.153483 0.0993,-0.07276 0.17663,-0.310885 0.17176,-0.529167 -0.0143,-0.639517 -0.79433,-0.455225 -0.88866,0.209948 -0.0662,0.466585 -0.20497,0.569082 -0.6006,0.443513 -0.283,-0.08982 -1.07771,0.01334 -1.76603,0.229253 -0.68831,0.215909 -1.84679,0.464068 -2.5744,0.551464 -0.7276,0.0874 -1.91823,0.454072 -2.64583,0.814834 -1.7144,0.850037 -6.022188,4.262306 -6.301766,4.991734 -0.259978,0.678288 -0.109575,3.043434 0.358503,5.637619 0.293123,1.62455 0.281703,2.272896 -0.07923,4.497917 -0.520435,3.208314 -0.210853,5.562463 1.148536,8.733789 0.363203,0.847317 0.441824,1.31435 0.253041,1.503133 -0.179599,0.1796 -0.273879,0.181992 -0.273879,0.0069 0,-0.146812 -0.184203,-0.498046 -0.409342,-0.780521 -0.384815,-0.482817 -0.399706,-0.458104 -0.248529,0.412451 0.09878,0.568854 0.07058,0.796084 -0.07312,0.589115 -0.128665,-0.18531 -0.522842,-0.389286 -0.875949,-0.453279 -0.785733,-0.142398 -2.626388,-2.127917 -2.626388,-2.833091 0,-0.491239 -0.354793,-1.320025 -0.820338,-1.916288 -0.120775,-0.154687 -0.554076,-0.697967 -0.96289,-1.20729 -1.600158,-1.993561 -1.587789,-1.972662 -0.974069,-1.645762 0.465381,0.247887 0.54453,0.218782 0.514475,-0.189179 -0.01954,-0.265174 -0.250408,-0.810095 -0.513048,-1.210936 -0.717487,-1.095023 -1.246883,-6.681626 -0.725143,-7.652279 0.222808,-0.414514 0.215556,-3.153466 -0.01007,-3.803702 -0.116651,-0.336179 -0.334186,-0.535776 -0.483412,-0.44355 -0.522797,0.323107 0.04491,-2.097906 0.931468,-3.9723 0.481804,-1.018646 0.954891,-2.119974 1.051305,-2.447396 0.09641,-0.327422 0.279841,-0.595312 0.407615,-0.595312 0.127774,0 0.388916,-0.327422 0.580317,-0.727605 0.232256,-0.485604 0.611058,-0.771604 1.138916,-0.859895 1.075784,-0.17994 1.909207,-0.761717 2.538872,-1.772278 0.290001,-0.465429 0.789255,-0.925598 1.109451,-1.022597 0.320197,-0.097 0.820301,-0.387366 1.111344,-0.64526 0.66497,-0.589239 2.63409,-1.586949 3.13206,-1.586949 0.20626,0 0.52763,-0.183887 0.71416,-0.408637 0.23412,-0.282099 0.57523,-0.356783 1.10157,-0.241181 0.42748,0.09389 0.91844,0.03797 1.11756,-0.127282 0.26976,-0.223877 0.39513,-0.190533 0.52146,0.138687 0.11976,0.312091 0.25874,0.356731 0.49644,0.15946 0.18156,-0.150681 1.40054,-0.332119 2.70884,-0.403194 1.30831,-0.07108 2.85334,-0.215633 3.4334,-0.321239 0.99767,-0.181635 1.03342,-0.165929 0.66146,0.290642 -0.35676,0.437928 -0.34829,0.465804 0.0915,0.300824 0.26656,-0.100006 1.19633,-0.18183 2.06614,-0.18183 0.98694,0 1.52,-0.09947 1.41795,-0.264583 -0.0899,-0.145521 -0.0445,-0.264583 0.10106,-0.264583 0.14552,0 0.33496,0.113862 0.42097,0.253028 0.086,0.139165 0.31911,0.190579 0.51801,0.114254 0.19891,-0.07633 0.43334,-0.02277 0.52096,0.119008 0.0876,0.14178 0.39005,0.197443 0.67206,0.123697 1.43314,-0.374774 7.63414,3.133912 8.16035,4.617332 0.1416,0.399193 0.70177,1.380649 1.24482,2.181014 0.54305,0.800365 1.01435,1.694459 1.04734,1.986877 0.0678,0.601082 0.53168,1.535411 1.24667,2.51104 0.50236,0.685487 1.52888,4.825249 1.54179,6.217708 0.004,0.436562 0.18522,1.134781 0.4026,1.551598 0.4782,0.916907 0.49573,1.636971 0.0779,3.199216 -0.26889,1.005347 -0.25119,1.32527 0.1159,2.095073 0.23829,0.499696 0.63352,2.375427 0.87828,4.16829 0.37824,2.770467 0.39523,3.538763 0.11321,5.11862 -0.40099,2.246312 -0.92189,3.787202 -1.49396,4.41933 -0.3977,0.439456 -0.29159,0.607569 1.62947,2.581647 l 2.05488,2.111582 -0.14356,10.792946 c -0.0891,6.69769 -0.25448,11.1578 -0.43587,11.75451 -0.43735,1.43875 -1.14942,2.18532 -2.98839,3.1332 l -1.66157,0.85644 -6.24481,0.14199 c -4.72279,0.10739 -6.29294,0.0641 -6.44229,-0.17753 -0.11564,-0.18712 0.22454,-0.92794 0.82085,-1.78761 2.58471,-3.72622 3.2449,-4.73316 3.25569,-4.96566 0.006,-0.13756 -0.49441,0.46423 -1.11288,1.33732 -1.91791,2.7075 -2.41101,3.215 -3.30729,3.40385 -0.48069,0.10129 -0.85989,0.0733 -0.85989,-0.0634 0,-0.31013 0.78362,-0.98943 1.38906,-1.20414 0.25466,-0.0903 0.46302,-0.34653 0.46302,-0.56938 0,-0.33384 -0.41928,-0.40518 -2.38125,-0.40518 -2.47203,0 -3.07306,-0.31553 -1.5875,-0.83339 0.87589,-0.30534 0.95425,-0.47536 0.46302,-1.00459 -0.26458,-0.28505 -0.26458,-0.31897 0,-0.16959 0.1819,0.10269 0.33073,0.0556 0.33073,-0.10454 0,-0.46696 -0.8397,-1.219 -2.03257,-1.82039 -0.60859,-0.30682 -1.1916,-0.70838 -1.29559,-0.89236 -0.15141,-0.26792 -0.11812,-0.26867 0.16726,-0.004 0.44722,0.4151 0.80031,0.42669 0.7135,0.0234 -0.0364,-0.16902 0.23151,-0.38356 0.59532,-0.47675 0.63333,-0.16224 0.60387,-0.20823 -0.69316,-1.08176 -5.4244,-3.65325 -6.73349,-4.56435 -6.86585,-4.77851 -0.0828,-0.13391 -0.26589,-0.17214 -0.40695,-0.085 -0.14105,0.0872 -1.20439,-0.78941 -2.36296,-1.94798 -1.15858,-1.15858 -2.1065,-2.0725 -2.1065,-2.03094 0,0.0416 0.35719,0.87166 0.79375,1.84467 0.87241,1.94443 0.91441,2.09018 0.53478,1.85556 -0.45012,-0.27819 1.24552,3.22715 2.34242,4.84241 3.13828,4.62131 4.62123,6.54219 5.8082,7.52339 0.53203,0.43979 0.72147,0.7276 0.47892,0.7276 -0.324,0 -0.37839,0.27693 -0.28244,1.43809 0.13633,1.64987 -0.0959,1.94359 -0.95071,1.20225 z m -0.81228,-1.47966 c -0.38705,-0.46637 -0.57492,-0.32963 -0.35052,0.25514 0.0914,0.23827 0.27861,0.36378 0.41595,0.2789 0.14888,-0.092 0.12246,-0.30765 -0.0654,-0.53404 z m -4.17564,-5.19998 c -0.26131,-0.25937 -0.2917,-0.22898 -0.14812,0.14811 0.0994,0.26094 0.24731,0.40778 0.32877,0.32632 0.0815,-0.0815 1.7e-4,-0.29496 -0.18065,-0.47443 z m -0.81446,-1.49429 c -0.16243,-0.3035 -0.41294,-0.55183 -0.5567,-0.55183 -0.14376,0 -0.0639,0.30138 0.17744,0.66972 0.51306,0.78302 0.81173,0.69018 0.37926,-0.11789 z m -2.7418,-5.8931 c -0.0845,-0.21107 -0.14716,-0.14837 -0.15985,0.15985 -0.0115,0.27892 0.051,0.43519 0.13896,0.34727 0.0879,-0.0879 0.0973,-0.31612 0.0209,-0.50712 z m 0.0838,-1.14102 c 0,-0.21828 -0.11906,-0.39687 -0.26458,-0.39687 -0.14553,0 -0.26459,0.17859 -0.26459,0.39687 0,0.21828 0.11906,0.39688 0.26459,0.39688 0.14552,0 0.26458,-0.1786 0.26458,-0.39688 z m 8.60984,-1.4376 c -0.0959,-0.1552 -0.30102,-0.28219 -0.45577,-0.28219 -0.17544,0 -0.15537,0.15181 0.0533,0.40327 0.36289,0.43725 0.68721,0.33967 0.40245,-0.12108 z m -6.14221,-0.71574 c -0.70108,-0.91916 -0.70767,-0.95426 -0.14576,-0.77592 0.98868,0.31379 0.70034,-0.45949 -0.61907,-1.66025 -0.66419,-0.60447 -1.34879,-1.10085 -1.52135,-1.10308 -0.23067,-0.003 -0.23398,-0.0555 -0.0125,-0.19844 0.20981,-0.13538 0.0783,-0.58279 -0.43324,-1.47408 -0.79102,-1.378197 -1.22659,-1.286047 -0.94771,0.2005 0.20634,1.0999 1.66494,3.32816 2.17859,3.32816 0.21315,0 0.32461,0.10185 0.24767,0.22633 -0.12817,0.20739 1.5747,2.4195 1.86253,2.4195 0.0688,0 -0.2053,-0.43322 -0.60916,-0.96272 z m 24.50245,-9.620607 c 0.001,-0.352783 -0.0236,-0.352783 -0.22321,0 -0.12349,0.21828 -0.30343,0.69453 -0.39986,1.05833 l -0.17534,0.66146 0.39854,-0.66146 c 0.2192,-0.3638 0.39914,-0.84005 0.39987,-1.05833 z m -16.12216,-0.220491 c 0,-0.344507 -0.31453,-0.573625 -0.57039,-0.415497 -0.27364,0.169117 -0.0377,0.635988 0.32142,0.635988 0.13693,0 0.24897,-0.0992 0.24897,-0.220491 z m 8.73125,-0.822232 c 0,-0.604407 -0.41715,-0.940084 -0.66662,-0.536428 -0.22226,0.359622 0.0366,1.049979 0.39373,1.049979 0.15009,0 0.27289,-0.231098 0.27289,-0.513551 z M 108.8026,93.180778 c -0.0899,-0.145521 -0.28258,-0.264583 -0.4281,-0.264583 -0.14552,0 -0.191,0.119062 -0.10106,0.264583 0.0899,0.145521 0.28258,0.264584 0.4281,0.264584 0.14552,0 0.191,-0.119063 0.10106,-0.264584 z m 21.33126,-2.030676 c -0.2306,-0.396552 -0.28223,-0.407981 -0.28884,-0.06394 -0.009,0.44558 0.26966,0.846772 0.45718,0.659254 0.0618,-0.06185 -0.0139,-0.329736 -0.16834,-0.595312 z m -0.9353,-4.432915 c 1.42373,-1.444152 1.74388,-2.77206 0.99958,-4.145976 -0.26811,-0.494894 -0.48903,-1.076812 -0.49093,-1.293151 -0.006,-0.693899 -0.94168,-0.60499 -2.83971,0.269868 -1.91631,0.883282 -2.3726,0.912949 -5.43104,0.353109 -0.78306,-0.143337 -0.8599,-0.09822 -0.8599,0.504949 0,0.530253 0.24899,0.77939 1.24848,1.249204 0.68666,0.32277 1.37127,0.74471 1.52135,0.937645 0.43361,0.557414 3.13738,2.502527 3.4786,2.502527 0.17025,0 0.37807,0.178593 0.46183,0.396875 0.24746,0.64485 0.68801,0.466241 1.91174,-0.77505 z m -6.50533,-0.960357 c 0,-0.601746 -0.11995,-0.778135 -0.52917,-0.778135 -0.60014,0 -0.74599,1.000256 -0.22223,1.524021 0.44676,0.446761 0.7514,0.144359 0.7514,-0.745886 z m 1.34393,-4.680739 c 0.20626,-0.400182 0.49427,-0.816901 0.64002,-0.926042 0.42975,-0.321796 -0.42485,-0.719091 -1.55638,-0.723552 -1.13346,-0.0045 -3.07341,0.499977 -3.07341,0.799181 0,0.327007 0.74839,0.8305 1.78343,1.199845 1.44645,0.516147 1.7881,0.462037 2.20634,-0.349432 z m 5.53523,-0.859896 c 0,-0.145521 -0.17859,-0.264583 -0.39687,-0.264583 -0.21828,0 -0.39688,0.119062 -0.39688,0.264583 0,0.145521 0.1786,0.264583 0.39688,0.264583 0.21828,0 0.39687,-0.119062 0.39687,-0.264583 z M 122.62708,78.2885 c 0.1819,-0.0069 0.33073,-0.111801 0.33073,-0.233069 0,-0.121267 0.19844,-0.220486 0.44097,-0.220486 0.24254,0 0.36958,-0.0714 0.28231,-0.158661 -0.21448,-0.214481 -1.99365,0.388756 -2.21821,0.752093 -0.12117,0.196058 -0.015,0.222497 0.32705,0.08147 0.27853,-0.114823 0.65525,-0.214431 0.83715,-0.221352 z m 10.91406,-3.908753 c 0,-0.136933 -0.11906,-0.248969 -0.26458,-0.248969 -0.14552,0 -0.26458,0.185621 -0.26458,0.41249 0,0.22687 0.11906,0.338906 0.26458,0.248969 0.14552,-0.08994 0.26458,-0.275557 0.26458,-0.41249 z M 92.530728,73.982872 c 0,-0.22687 -0.119063,-0.338905 -0.264583,-0.248969 -0.145521,0.08994 -0.264584,0.275558 -0.264584,0.41249 0,0.136933 0.119063,0.248969 0.264584,0.248969 0.14552,0 0.264583,-0.185621 0.264583,-0.41249 z m -0.0039,-5.923977 c 0.209701,-0.731185 0.189772,-0.806768 -0.140456,-0.532703 -0.211656,0.175659 -0.38483,0.622302 -0.38483,0.992539 0,0.836325 0.205026,0.656845 0.525286,-0.459836 z m 15.059282,31.797758 c -1.51532,-1.63063 -1.92321,-2.17796 -1.62312,-2.17796 0.33423,0 2.83993,2.865977 2.66161,3.044297 -0.0665,0.0665 -0.53386,-0.32331 -1.03849,-0.866337 z M 93.258332,86.390977 c -1.240269,-0.379655 -1.694131,-0.88405 -0.79375,-0.882126 0.466959,9.97e-4 2.182813,0.933083 2.182813,1.185747 0,0.0749 -0.02977,0.123784 -0.06615,0.108633 -0.03638,-0.01515 -0.631693,-0.200665 -1.322917,-0.412254 z m 13.581948,-2.314483 c 0.0606,-0.05965 0.97537,-0.410256 2.03275,-0.77913 1.05738,-0.368873 2.10768,-0.855851 2.334,-1.082174 0.37567,-0.375669 1.43203,-0.585595 1.43203,-0.284581 0,0.247227 -2.00905,1.143991 -3.79818,1.695361 -1.83268,0.56479 -2.20109,0.647755 -2.0006,0.450524 z m -3.61036,-0.9274 c -0.13648,-0.129636 -0.48628,-0.292979 -0.77732,-0.362984 -0.34169,-0.08219 -0.22363,-0.138154 0.33325,-0.157973 0.68988,-0.02455 1.00746,-0.240402 1.5875,-1.078984 0.3988,-0.576561 0.87266,-1.052811 1.05303,-1.058333 0.45709,-0.014 3.81834,-1.375908 3.6965,-1.497748 -0.19021,-0.190216 -4.42132,0.513329 -4.42132,0.735175 0,0.12285 -0.1871,0.223365 -0.41577,0.223365 -0.68437,0 -1.19593,0.65894 -0.82399,1.061366 0.2489,0.269302 0.21358,0.304054 -0.17094,0.1682 -0.26656,-0.09418 -0.62375,-0.171472 -0.79375,-0.171763 -0.45671,-7.84e-4 -0.49868,-1.73142 -0.067,-2.764487 0.46587,-1.11499 1.67743,-2.001408 2.0069,-1.468316 0.17997,0.291198 0.33886,0.276775 0.8837,-0.08022 0.3675,-0.240798 0.70284,-0.319562 0.75059,-0.1763 0.0498,0.149269 0.70093,0.0343 1.53738,-0.271434 2.50478,-0.915529 4.49219,-0.683408 4.96922,0.580383 0.27309,0.723501 0.39366,0.793887 1.11333,0.649953 0.76916,-0.153832 0.79903,-0.127515 0.636,0.560287 -0.33854,1.428249 -0.8753,2.441493 -1.29337,2.441493 -0.2343,0 -0.35241,0.119063 -0.26247,0.264584 0.0899,0.145521 0.12673,0.265728 0.0818,0.267127 -0.045,0.0014 -1.7513,0.287081 -3.79185,0.63485 -2.32919,0.39696 -4.05868,0.837975 -4.64664,1.184881 -0.55559,0.327805 -1.03749,0.4567 -1.1847,0.316874 z m 5.31365,-3.147832 c -0.0539,-0.05388 -0.37483,-0.0099 -0.71322,0.09763 -0.58797,0.186928 -0.59179,0.203991 -0.0861,0.38492 0.46205,0.165306 1.07632,-0.205539 0.79931,-0.482552 z"
       id="path1" /></g></svg>
